<svg xmlns="http://www.w3.org/2000/svg" width="700pt" height="700pt" version="1.1" viewBox="0 0 700 700">
  <path d="M 350 50 C 186.8 50 54.3 182.5 54.3 345.7 C 54.3 508.9 186.8 641.4 350 641.4 C 513.2 641.4 645.7 508.9 645.7 345.7 C 645.7 182.5 513.2 50 350 50 z M 350 120 C 400.3 120 447.1 138.5 483.5 169.7 L 225.1 428.1 C 195.3 391.1 177.1 345.8 177.1 296.4 C 177.1 201.1 254.7 120 350 120 z M 523.7 216.5 C 548.9 251.8 564.3 295.6 564.3 343.6 C 564.3 438.9 474.7 520 379.4 520 C 333.4 520 291.1 504.9 257.7 481.9 L 523.7 216.5 z" fill="#000000"/>
  <path d="M 350 175 C 279.7 175 222.9 231.8 222.9 302.1 C 222.9 335.8 235.8 367.8 259.3 391.3 C 258.7 389.3 257.1 387.4 257.1 385.7 L 257.1 350 C 257.1 341.7 263.8 335 272.1 335 L 307.9 335 C 314.5 335 320 331.3 322.1 325.1 C 324.3 318.9 322.4 312 317.4 307.7 L 299.2 292.6 C 293.1 287.4 293.1 277.9 299.2 272.7 L 332.7 242.8 C 337.9 238.1 345.8 238.1 351 242.8 L 384.6 272.7 C 390.7 277.9 390.7 287.4 384.6 292.6 L 366.4 307.7 C 361.4 312 359.5 318.9 361.7 325.1 C 363.8 331.3 369.3 335 375.9 335 L 427.9 335 C 434.5 335 440 331.3 442.1 325.1 C 444.3 318.9 442.4 312 437.4 307.7 L 419.2 292.6 C 413.1 287.4 413.1 277.9 419.2 272.7 L 452.7 242.8 C 457.9 238.1 465.8 238.1 471 242.8 L 504.6 272.7 C 510.7 277.9 510.7 287.4 504.6 292.6 L 486.4 307.7 C 481.4 312 479.5 318.9 481.7 325.1 C 483.8 331.3 489.3 335 495.9 335 L 523.6 335 C 531.8 335 538.6 341.7 538.6 350 L 538.6 385.7 C 538.6 393.9 531.8 400.7 523.6 400.7 L 427.9 400.7 C 423.6 400.7 419.4 398.9 416.6 395.3 L 350 315.7 L 283.4 395.3 C 280.6 398.9 276.4 400.7 272.1 400.7 L 252.1 400.7 C 270.5 420.3 295.3 435 323.6 439.3 L 323.6 457.1 L 284.3 457.1 C 276 457.1 269.3 463.9 269.3 472.1 C 269.3 480.4 276 487.1 284.3 487.1 L 414.3 487.1 C 422.5 487.1 429.3 480.4 429.3 472.1 C 429.3 463.9 422.5 457.1 414.3 457.1 L 375 457.1 L 375 439.3 C 434 433.6 479.3 374.1 479.3 302.1 C 479.3 231.8 422.5 175 352.1 175 L 350 175 z" fill="#3a6cf4"/>
</svg>
